<?xml version="1.0" encoding="UTF-8" standalone="no"?>
<svg
   xmlns:dc="http://purl.org/dc/elements/1.1/"
   xmlns:cc="http://creativecommons.org/ns#"
   xmlns:rdf="http://www.w3.org/1999/02/22-rdf-syntax-ns#"
   xmlns:svg="http://www.w3.org/2000/svg"
   xmlns="http://www.w3.org/2000/svg"
   version="1.1"
   id="svg2"
   viewBox="0 0 227.71564 248.99125"
   height="248.99124"
   width="227.71564">
  <defs
     id="defs4" />
  <metadata
     id="metadata7">
    <rdf:RDF>
      <cc:Work
         rdf:about="">
        <dc:format>image/svg+xml</dc:format>
        <dc:type
           rdf:resource="http://purl.org/dc/dcmitype/StillImage" />
        <dc:title></dc:title>
      </cc:Work>
    </rdf:RDF>
  </metadata>
  <g
     transform="translate(294.46435,15.802006)"
     id="layer1">
    <path
       id="path3503"
       d="m -207.10014,231.18841 c -28.47957,-6.4764 -54.36594,-23.97244 -69.80958,-47.18281 -6.95177,-10.44785 -11.13699,-19.62646 -14.51342,-31.82934 l -2.62856,-9.50001 -0.32841,-70.999999 c -0.18062,-39.050003 -0.0611,-72.44925916 0.26557,-74.2205692 1.26964,-6.8840562 9.83701,-13.2121948 17.94867,-13.2574758 5.67353,-0.03167 12.21115,3.485352 15.38171,8.2748521 l 2.68401,4.0545167 0.5,72.0743412 0.5,72.074334 2.82364,7.99041 c 6.78569,19.20236 20.99376,34.6801 39.99873,43.57311 20.15145,9.42949 47.20383,9.42949 67.35528,0 9.19713,-4.30362 17.15656,-10.0624 23.96046,-17.33579 7.61936,-8.14511 12.42031,-15.99908 16.03828,-26.23732 l 2.82363,-7.99041 0.5,-71.999999 c 0.46217,-66.5529092 0.6345,-72.2462052 2.27789,-75.2542722 2.397596,-4.3886128 8.696956,-8.3758608 14.215536,-8.9978848 8.82556,-0.994767 18.60328,5.347726 20.01143,12.9807698 0.33193,1.79926004 0.44552,35.2213842 0.25243,74.2713872 -0.33959,68.676359 -0.42078,71.261819 -2.48067,79.000009 -10.81105,40.61279 -43.226216,71.23908 -85.276626,80.57048 -11.78726,2.61571 -40.88322,2.58338 -52.5,-0.0583 z"
       style="fill:#020202" />
  </g>
</svg>
