<?xml version="1.0" encoding="UTF-8" standalone="no"?>
<svg
   xmlns:dc="http://purl.org/dc/elements/1.1/"
   xmlns:cc="http://creativecommons.org/ns#"
   xmlns:rdf="http://www.w3.org/1999/02/22-rdf-syntax-ns#"
   xmlns:svg="http://www.w3.org/2000/svg"
   xmlns="http://www.w3.org/2000/svg"
   version="1.1"
   id="svg2"
   viewBox="0 0 249.65316 249.92382"
   height="249.92381"
   width="249.65315">
  <defs
     id="defs4" />
  <metadata
     id="metadata7">
    <rdf:RDF>
      <cc:Work
         rdf:about="">
        <dc:format>image/svg+xml</dc:format>
        <dc:type
           rdf:resource="http://purl.org/dc/dcmitype/StillImage" />
        <dc:title></dc:title>
      </cc:Work>
    </rdf:RDF>
  </metadata>
  <g
     transform="translate(374.54086,-214.23541)"
     id="layer1">
    <path
       id="path3360"
       d="m -262.71429,462.58796 c -8.78694,-2.31226 -17.9002,-7.45255 -24.43554,-13.78275 -5.39199,-5.22273 -6.78522,-6.02814 -12.56446,-7.26333 -17.22164,-3.68076 -33.51222,-16.62375 -40.92968,-32.51896 -2.14462,-4.59582 -4.43656,-11.11881 -5.09319,-14.49555 -1.16588,-5.9956 -1.27924,-6.15368 -4.8355,-6.74364 -5.68687,-0.94341 -13.90489,-6.22631 -17.44999,-11.21762 -13.61034,-19.16263 -4.96132,-44.32345 17.16763,-49.94221 l 4.50057,-1.14275 2.7379,-10.40713 c 3.2547,-12.37154 6.4305,-19.77112 12.589,-29.33225 16.50383,-25.62234 41.80301,-41.36773 71.81326,-44.69424 9.52565,-1.05588 12.5947,-0.98948 22.89791,0.4954 l 11.89792,1.71472 2.86803,-2.74775 c 3.55726,-3.40807 4.93773,-8.31125 4.5981,-16.33164 -0.23138,-5.46397 0.0136,-6.4094 2.09882,-8.09875 6.18753,-5.01291 13.15898,0.72536 13.12735,10.80526 -0.0155,4.95052 -2.11662,12.67399 -4.96199,18.23999 -1.25339,2.45184 -1.88452,4.59748 -1.40251,4.76809 0.482,0.17062 3.09666,1.61676 5.81035,3.21365 l 4.93398,2.90343 5.65267,-2.85345 c 6.95212,-3.50942 11.67778,-8.69824 12.49371,-13.71821 1.34363,-8.26666 4.86158,-11.5803 10.27363,-9.67699 4.16483,1.4647 5.57047,5.36202 4.24196,11.76141 -1.94191,9.35417 -7.3858,17.28056 -15.02993,21.88382 -1.925,1.15923 -3.66783,2.23487 -3.87295,2.39032 -0.20512,0.15544 2.10253,3.11479 5.1281,6.57634 11.53535,13.19754 18.18271,25.73105 22.64711,42.70085 l 2.7379,10.40713 4.50057,1.14275 c 22.12895,5.61876 30.77798,30.77958 17.16763,49.94221 -3.5451,4.99131 -11.76312,10.27421 -17.44999,11.21762 -3.55626,0.58996 -3.66962,0.74804 -4.8355,6.74364 -4.38496,22.54984 -23.65348,42.23353 -46.02287,47.01451 -5.77923,1.23519 -7.17247,2.0406 -12.56446,7.26333 -13.27124,12.85467 -33.2327,18.30963 -50.43554,13.78275 z m 24.7601,-15.26927 c 6.79039,-2.11341 14.00168,-6.74054 17.40559,-11.16832 6.41224,-8.34101 6.13692,-8.14115 11.85918,-8.60881 18.9638,-1.54985 33.23818,-12.86259 39.58845,-31.37467 1.69183,-4.93197 1.88483,-8.70164 1.86879,-36.5 -0.0165,-28.61922 -0.18714,-31.66887 -2.22158,-39.70926 -7.83618,-30.96975 -29.39895,-53.32122 -59.76053,-61.94638 -6.39134,-1.81566 -10.51353,-2.27265 -20.5,-2.27265 -9.98647,0 -14.10866,0.45699 -20.5,2.27265 -30.36158,8.62516 -51.92435,30.97663 -59.76053,61.94638 -2.03444,8.04039 -2.20505,11.09004 -2.22157,39.70926 -0.0161,27.79836 0.17696,31.56803 1.86879,36.5 6.35026,18.51208 20.62464,29.82482 39.58844,31.37467 5.72226,0.46766 5.44694,0.2678 11.85919,8.60881 8.24586,10.72616 26.41535,15.68447 40.92578,11.16832 z m -24.38209,-34.62513 c -7.80227,-1.41631 -16.88614,-5.43209 -19.62801,-8.67711 -3.75472,-4.44372 -1.0423,-11.84956 4.33995,-11.84956 1.6371,0 5.09908,1.06903 7.69329,2.37562 2.59422,1.30659 7.10141,2.88159 10.01598,3.5 10.41243,2.20929 21.64893,0.91636 30.41754,-3.5 2.59421,-1.30659 6.0562,-2.37562 7.69329,-2.37562 5.38225,0 8.09467,7.40584 4.33995,11.84956 -2.81279,3.32895 -11.83545,7.24234 -20.09352,8.71515 -9.33524,1.66492 -15.44886,1.65553 -24.77847,-0.038 z m -23.62227,-48.50417 c -4.79479,-3.77158 -4.01123,-11.80478 1.42567,-14.61631 7.65389,-3.95798 15.71778,4.28185 11.65525,11.90955 -2.65218,4.97966 -8.62118,6.2148 -13.08092,2.70676 z m 57.53351,-0.2725 c -4.49281,-4.90868 -3.60962,-11.49873 1.92459,-14.36058 5.61132,-2.90173 11.36539,0.24282 12.42815,6.79187 1.26107,7.77106 -9.14497,13.25853 -14.35274,7.56871 z m -118.28925,-6.75 c 0,-17.51185 -0.002,-17.5158 -5.75914,-14.0054 -4.87969,2.97518 -7.23338,7.53245 -7.23338,14.0054 0,6.47295 2.35369,11.03022 7.23338,14.0054 5.75752,3.5104 5.75914,3.50645 5.75914,-14.0054 z m 199.75914,14.0054 c 4.87969,-2.97518 7.23338,-7.53245 7.23338,-14.0054 0,-6.47295 -2.35369,-11.03022 -7.23338,-14.0054 -5.75752,-3.5104 -5.75914,-3.50645 -5.75914,14.0054 0,17.51185 0.002,17.5158 5.75914,14.0054 z"
       style="fill:#030303" />
  </g>
</svg>
