<?xml version="1.0" encoding="UTF-8" standalone="no"?>
<svg
   xmlns:dc="http://purl.org/dc/elements/1.1/"
   xmlns:cc="http://creativecommons.org/ns#"
   xmlns:rdf="http://www.w3.org/1999/02/22-rdf-syntax-ns#"
   xmlns:svg="http://www.w3.org/2000/svg"
   xmlns="http://www.w3.org/2000/svg"
   version="1.1"
   id="svg2"
   viewBox="0 0 208.99454 249.94672"
   height="249.94672"
   width="208.99454">
  <defs
     id="defs4" />
  <metadata
     id="metadata7">
    <rdf:RDF>
      <cc:Work
         rdf:about="">
        <dc:format>image/svg+xml</dc:format>
        <dc:type
           rdf:resource="http://purl.org/dc/dcmitype/StillImage" />
        <dc:title></dc:title>
      </cc:Work>
    </rdf:RDF>
  </metadata>
  <g
     transform="translate(771.25243,-35.705529)"
     id="layer1">
    <path
       id="path3399"
       d="m -768.94561,283.06166 c -2.5394,-2.5394 -2.58565,-2.82283 -1.99891,-12.25 3.41496,-54.8685 49.35993,-98.15046 104.18936,-98.15046 54.82943,0 100.7744,43.28196 104.18936,98.15046 0.58674,9.42717 0.54049,9.7106 -1.99891,12.25 -2.52743,2.52743 -5.84477,3.24502 -9.14565,1.97836 -2.55936,-0.98212 -4.5448,-5.85113 -4.5448,-11.1455 0,-16.95562 -8.55955,-38.76107 -21.24448,-54.12032 -5.62554,-6.81155 -21.06089,-19.51121 -22.94919,-18.88178 -0.52523,0.17508 -9.15068,13.58218 -19.16766,29.79355 -19.56635,31.66599 -20.98707,33.3162 -26.65998,30.9664 -2.23523,-0.92586 -7.12336,-7.9205 -22.0496,-31.55177 l -19.17771,-30.3622 -2.79897,1.44741 c -5.36914,2.77649 -17.49084,13.30435 -22.62935,19.65389 -11.96209,14.7813 -20.32306,36.56884 -20.32306,52.95913 0,5.37944 -1.97051,10.25334 -4.5448,11.24119 -3.30088,1.26666 -6.61822,0.54907 -9.14565,-1.97836 z m 116.7839,-65.65046 c 7.26619,-11.6875 13.40353,-21.97379 13.63852,-22.85843 1.02894,-3.87354 -26.99524,-7.28822 -41.23197,-5.02401 -10.45963,1.66349 -14.74411,3.05392 -14.15344,4.59318 0.66622,1.73615 27.76926,44.53926 28.20237,44.53926 0.18328,0 6.27832,-9.5625 13.54452,-21.25 z m -29.58123,-56.36413 c -10.86432,-2.62638 -20.22275,-8.05548 -29.06891,-16.86372 -13.19205,-13.13552 -18.75651,-26.4398 -18.83031,-45.022151 -0.0702,-17.67089 5.82378,-31.94966 18.37705,-44.52041 25.24133,-25.27649 63.69338,-25.24321 89.14771,0.0772 6.02372,5.99202 8.48514,9.3775 11.64767,16.02041 5.23252,10.99093 6.68443,17.34845 6.60531,28.92285 -0.12389,18.124541 -5.80114,31.545101 -18.83406,44.522151 -8.999,8.96044 -18.27201,14.26913 -29.55668,16.92088 -8.04332,1.89007 -21.54107,1.8639 -29.48778,-0.0572 z m 28.78238,-16.39514 c 7.99488,-2.46937 17.26418,-8.52593 22.12245,-14.45481 5.00944,-6.11336 9.4812,-16.06802 10.80403,-24.05104 4.5719,-27.590541 -18.47983,-54.461141 -46.72108,-54.461141 -22.66006,0 -42.90894,17.48588 -46.69294,40.3216 -2.8454,17.171461 5.33221,36.308481 19.7621,46.246731 11.8216,8.14185 27.23902,10.56419 40.72544,6.39866 z"
       style="fill:#030303" />
  </g>
</svg>
