<svg id="Layer_2" data-name="Layer 2" xmlns="http://www.w3.org/2000/svg" viewBox="0 0 703.9 387.86"><defs><style>.cls-1{fill:#231f20;}</style></defs><title>bus</title><path class="cls-1" d="M246.35,581.49a11.86,11.86,0,1,0,11.83,11.85A11.84,11.84,0,0,0,246.35,581.49Z" transform="translate(-152.23 -259.47)"/><path class="cls-1" d="M751.84,581.49A11.85,11.85,0,0,0,740,593.34a11.65,11.65,0,0,0,1.28,5.33,11.84,11.84,0,1,0,10.57-17.18Z" transform="translate(-152.23 -259.47)"/><path class="cls-1" d="M152.24,556.57c0,14.75,9.18,26.7,20.52,26.7H193.1c2.71,36,26,64.06,54.39,64.06s51.67-28.1,54.38-64.06H704.66c2.71,36,26,64.06,54.39,64.06s51.67-28.1,54.38-64.06H835.6c11.34,0,20.53-11.95,20.53-26.7V286.18c0-14.76-9.19-26.71-20.53-26.71H265.5a54,54,0,0,0-17.88,3.07,58.76,58.76,0,0,0-9,4l-62.16,1.5a8.72,8.72,0,0,0-4.81-6.49c-3.09-1.25-6.44.33-8.2,3.87l-4.71,9.47a11.69,11.69,0,0,0-1.07,6.47L161.14,312c.53,4.59,3.56,8,7.14,8h4.61c4.3,0,7.64-4.86,7.17-10.41l-2.16-25.46H218a96.39,96.39,0,0,0-17.82,36.2L154.7,508a77.28,77.28,0,0,0-2.47,19.48v29.11Zm122.62,42.09a29,29,0,0,1-57,0,28.41,28.41,0,0,1-.5-5.33,29,29,0,1,1,57.5,5.33Zm427-82.45a2,2,0,0,0-1.83,1.14l-19.18,38.41a18.93,18.93,0,0,1-17,10.54H367.11A19,19,0,0,1,349.5,540a2.06,2.06,0,0,0-1.9-2.83H275.36a8.5,8.5,0,0,1,0-17H347.6a19.05,19.05,0,0,1,17.62,26.3,2,2,0,0,0,1.89,2.83H663.83a2,2,0,0,0,1.83-1.13l19.18-38.41a18.92,18.92,0,0,1,17-10.55h69.46a8.5,8.5,0,0,1,0,17Zm78.46,82.45a29,29,0,0,1-57,0,28.41,28.41,0,0,1-.5-5.33,29,29,0,1,1,57.5,5.33Zm50.39-90.95c3.59,0,6.5,5.89,6.5,13.16S834.32,534,830.73,534s-6.5-5.89-6.5-13.16S827.14,507.71,830.73,507.71Zm0,36.93c3.59,0,6.5,5.89,6.5,13.16S834.32,571,830.73,571s-6.5-5.89-6.5-13.16S827.14,544.64,830.73,544.64ZM347.34,460.73,370.28,291c.93-6.89,4.11-11.68,7.75-11.68H809.84c4.43,0,8,7,8,15.69V400.79A26.08,26.08,0,0,1,816,410.93l-27.69,63.95c-1.53,3.52-3.76,5.55-6.12,5.55h-427C349.83,480.43,346,470.68,347.34,460.73Zm-145.11,9.36,21.15-104.63c3.39-15.29,10.19-28.17,19.16-36.27A36.54,36.54,0,0,1,253,322.44a28.82,28.82,0,0,1,11.19-2.31h74c3.31,0,5.74,4.83,4.95,9.84l-13.86,88.1c-2.49,15.83-11.34,27.15-21.68,28-7.95.65-15.43,6-20.55,15.47l-1.58,2.94c-5.46,10.12-13.5,16-22,16H207.08C203.64,480.43,201.19,475.21,202.23,470.09Zm-36,87.58.84-7.28a6,6,0,0,1,4.56-5.13l23-5.46a6,6,0,0,1,7.27,6.78l-1.38,8.52a6,6,0,0,1-4.79,4.91l-22.41,4.22A6,6,0,0,1,166.27,557.67Z" transform="translate(-152.23 -259.47)"/></svg>