<svg id="Capa_1" data-name="Capa 1" xmlns="http://www.w3.org/2000/svg" viewBox="0 0 48.51 38.11"><defs><style>.cls-1{fill:#030104;}</style></defs><title>jeep</title><rect class="cls-1" x="20.48" y="5.05" width="6.56" height="1.31"/><path class="cls-1" d="M43,19.79h5.52V16.15H42.83v3.38H40.94l-1.68-15c-19.63-2.54-31,0-31,0L6.58,19.53h-.9V16.15H0v3.64H5.68V20H4.53V21.6H3.06v3.27H4.53v5.47h4.8v2.88h30V30.34H43V25h3.59V21.43H43V20h-.16v-.17ZM11.87,7.51H36.21l1.5,14.05H10.37ZM15.7,29.66H7.63V26H15.7Zm5.91.94H19.36V25.18h2.25Zm3.56,0H22.92V25.18h2.25Zm3.49,0H26.42V25.18h2.24Zm11.79-.94H32.38V26h8.07Z" transform="translate(0 -3.35)"/><rect class="cls-1" x="3.06" y="28.31" width="5.25" height="9.61"/><rect class="cls-1" x="39.62" y="28.49" width="5.24" height="9.61"/></svg>