<?xml version="1.0" encoding="UTF-8" standalone="no"?>
<svg
   xmlns:dc="http://purl.org/dc/elements/1.1/"
   xmlns:cc="http://creativecommons.org/ns#"
   xmlns:rdf="http://www.w3.org/1999/02/22-rdf-syntax-ns#"
   xmlns:svg="http://www.w3.org/2000/svg"
   xmlns="http://www.w3.org/2000/svg"
   version="1.1"
   id="svg2"
   viewBox="0 0 247.00005 170.09041"
   height="170.09041"
   width="247.00005">
  <defs
     id="defs4" />
  <metadata
     id="metadata7">
    <rdf:RDF>
      <cc:Work
         rdf:about="">
        <dc:format>image/svg+xml</dc:format>
        <dc:type
           rdf:resource="http://purl.org/dc/dcmitype/StillImage" />
        <dc:title></dc:title>
      </cc:Work>
    </rdf:RDF>
  </metadata>
  <g
     transform="translate(452.57143,-194.79077)"
     id="layer1">
    <path
       id="path3347"
       d="m -410.16046,362.3608 c -2.79896,-1.27311 -6.78798,-4.01371 -8.86449,-6.09022 -3.40788,-3.40788 -8.51202,-12.38914 -8.53671,-15.02123 -0.005,-0.57278 -4.07702,-1.51373 -9.04811,-2.09099 -8.23496,-0.95628 -9.34602,-1.3478 -12.5,-4.40475 l -3.46166,-3.35517 0.022,-56.55384 c 0.0212,-54.65589 0.09,-56.70389 2.05031,-61.02539 4.42307,-9.75084 10.47408,-14.89383 20.63827,-17.54126 4.82553,-1.2569 18.22881,-1.48718 86.55801,-1.48718 53.94683,0 83.24126,0.36721 88.0399,1.10358 13.48629,2.06955 22.33051,8.34238 28.27769,20.05621 1.49119,2.93711 6.91935,16.93501 12.06256,31.10644 l 9.3513,25.76623 0,25.58264 c 0,28.66939 -0.1845,29.60854 -7.03201,35.79486 -3.98929,3.60408 -9.1836,5.57497 -14.71799,5.58446 -1.92512,0.003 -3.25398,0.51515 -3.25977,1.25558 -0.005,0.6875 -1.07885,3.54598 -2.3855,6.35217 -6.99442,15.02133 -24.90184,21.72087 -39.26275,14.68901 -6.4406,-3.15365 -13.6942,-10.73235 -15.38619,-16.07578 -0.64706,-2.04347 -1.88783,-4.2779 -2.75726,-4.9654 -1.20033,-0.94916 -10.51409,-1.25 -38.69853,-1.25 -28.18444,0 -37.4982,0.30084 -38.69853,1.25 -0.86943,0.6875 -2.1102,2.92193 -2.75726,4.9654 -1.69199,5.34343 -8.94559,12.92213 -15.38619,16.07578 -7.3143,3.58147 -16.74768,3.68995 -24.24705,0.27885 z m 19.09761,-9.43501 c 6.77662,-3.07856 12.48027,-11.3665 12.48027,-18.13502 0,-8.63024 -7.58984,-17.48943 -16.65517,-19.44064 -7.10774,-1.52986 -17.86514,4.70242 -20.98655,12.15852 -6.53322,15.60586 9.99846,32.30554 25.16145,25.41714 z m 141.52612,-1.53928 c 7.20575,-4.76854 10.71307,-14.76991 8.03028,-22.89885 -2.54832,-7.72147 -13.97331,-14.73575 -21.39866,-13.13753 -9.06533,1.95121 -16.65517,10.8104 -16.65517,19.44064 0,6.74267 5.66098,14.99551 12.48027,18.19431 5.20354,2.44088 12.43497,1.78194 17.54328,-1.59857 z m -176.5611,-26.51626 c 2.10863,-6.34847 8.41788,-13.47024 14.90305,-16.82231 4.2092,-2.17565 6.46157,-2.64725 12.62335,-2.64306 13.18098,0.009 21.16181,5.12302 27.34251,17.52086 l 3.17316,6.36503 38.98433,0 38.98433,0 3.16471,-6.34808 c 3.99399,-8.01152 7.35123,-11.51301 14.32049,-14.93578 7.30032,-3.58536 16.9825,-3.68568 24.8099,-0.25706 6.56817,2.87703 13.57335,10.43557 15.96609,17.2273 l 1.75448,4.98005 3.8204,-0.60629 c 5.1323,-0.81449 8.30766,-3.05443 9.60478,-6.77535 1.14726,-3.29104 1.50063,-41.57627 0.4428,-47.97424 l -0.61001,-3.68944 -25.62899,-0.31056 c -28.39004,-0.34401 -29.71432,-0.61602 -34.30014,-7.04546 -2.16902,-3.04102 -2.34901,-4.36309 -2.6227,-19.26509 -0.27621,-15.03871 -0.15604,-16.26592 2,-20.42601 3.63275,-7.00941 6.66911,-8.07399 23.02826,-8.07399 8.01832,0 13.7656,-0.39626 13.7656,-0.94911 0,-1.47094 -6.57498,-6.13494 -10.74797,-7.62414 -3.02211,-1.07848 -20.48258,-1.34323 -89.75203,-1.3609 -81.32728,-0.0207 -86.21958,0.0778 -90.04137,1.81381 -4.93188,2.24025 -9.03307,6.92692 -10.41462,11.90139 -1.35809,4.89001 -1.42145,104.096 -0.0688,107.65385 0.90762,2.38722 1.42214,2.5651 7.41963,2.5651 l 6.44439,0 1.63433,-4.92052 z m 4.18159,-55.53813 c -9.17868,-3.27265 -11.04286,-7.84812 -11.03211,-27.07747 0.009,-15.58433 1.21406,-19.88561 6.69735,-23.89935 2.61222,-1.91213 4.42078,-2.08542 24.5,-2.34756 25.45533,-0.33234 27.00025,0.0782 31.11643,8.26905 2.21202,4.40172 2.43022,6.01002 2.36502,17.43155 -0.0395,6.92034 -0.61009,14.56604 -1.26795,16.99045 -1.47707,5.44341 -5.45047,9.55886 -10.61273,10.99213 -5.79778,1.60972 -36.99669,1.3417 -41.76601,-0.3588 z m 41.42088,-11.61742 c 1.93274,-1.93274 2.05355,-3.00853 1.75,-15.58274 -0.28967,-11.99881 -0.54277,-13.66491 -2.2672,-14.92394 -1.50071,-1.09569 -5.93129,-1.41725 -19.52749,-1.41725 -23.36339,0 -22.03138,-1.01137 -22.03138,16.72796 0,11.26517 0.28559,13.93013 1.65499,15.4433 1.48875,1.64505 3.49764,1.82874 20,1.82874 17.23573,0 18.47055,-0.12554 20.42108,-2.07607 z m 32.60773,11.66283 c -9.24452,-3.38318 -10.68865,-7.01197 -10.66735,-26.80464 0.015,-13.96358 0.20916,-15.61961 2.25,-19.19371 4.08284,-7.15024 6.42889,-7.71341 32.13223,-7.71341 25.4554,0 27.816,0.51767 31.83556,6.98146 2.05661,3.30721 2.29387,5.07433 2.57033,19.14354 0.28577,14.5429 0.16227,15.77646 -2,19.97712 -4.08971,7.94514 -5.9893,8.48561 -30.80457,8.76456 -16.40722,0.18443 -22.40396,-0.0891 -25.3162,-1.15492 z m 46.3162,-11.58676 c 1.79487,-1.79487 2,-3.33333 2,-15 0,-18.09775 1.58205,-17 -24.5,-17 -26.05046,0 -24.5,-1.06175 -24.5,16.77749 0,18.47533 -1.74997,17.22251 24.0567,17.22251 19.60997,0 21.07063,-0.12733 22.9433,-2 z m 80.71765,0.75 c -0.27298,-0.6875 -3.03745,-7.74857 -6.14328,-15.69127 -3.10583,-7.9427 -6.13573,-15.0302 -6.73311,-15.75 -0.80875,-0.97448 -5.01359,-1.30873 -16.4637,-1.30873 -20.36411,0 -19.70331,-0.58411 -19.22546,16.99398 0.4953,18.22065 -1.40527,17.00602 26.60988,17.00602 17.55964,0 22.34385,-0.27238 21.95567,-1.25 z"
       style="fill:#040404" />
  </g>
</svg>
