<?xml version="1.0" encoding="UTF-8" standalone="no"?>
<svg
   xmlns:dc="http://purl.org/dc/elements/1.1/"
   xmlns:cc="http://creativecommons.org/ns#"
   xmlns:rdf="http://www.w3.org/1999/02/22-rdf-syntax-ns#"
   xmlns:svg="http://www.w3.org/2000/svg"
   xmlns="http://www.w3.org/2000/svg"
   version="1.1"
   id="svg2"
   viewBox="0 0 249.00001 248.99631"
   height="248.99631"
   width="249">
  <defs
     id="defs4" />
  <metadata
     id="metadata7">
    <rdf:RDF>
      <cc:Work
         rdf:about="">
        <dc:format>image/svg+xml</dc:format>
        <dc:type
           rdf:resource="http://purl.org/dc/dcmitype/StillImage" />
        <dc:title></dc:title>
      </cc:Work>
    </rdf:RDF>
  </metadata>
  <g
     transform="translate(622.39801,-107.73065)"
     id="layer1">
    <path
       id="path3373"
       d="m -527.02899,354.81399 c -2.82119,-1.72028 -5.74004,-1.94949 -29.5,-2.3165 -24.04717,-0.37145 -26.89022,-0.59963 -32.28829,-2.59145 -16.49742,-6.08735 -29.00387,-20.32636 -32.47565,-36.97461 -0.76406,-3.66392 -1.10508,-36.14339 -1.10508,-105.25 l 0,-99.95078 16.5,0 16.5,0 0,58 0,58 4,0 c 3.95422,0 4.00009,-0.0429 4.00756,-3.75 0.0495,-24.5611 16.10514,-45.10577 38.4261,-49.16968 7.84693,-1.42866 124.17883,-1.48133 131.67552,-0.0596 17.70723,3.35811 33.13501,18.36532 36.7812,35.77852 0.64436,3.07727 1.10962,15.93331 1.10962,30.66091 0,21.85868 -0.25528,26.18189 -1.8482,31.29997 -2.50313,8.04255 -7.18651,14.53343 -14.22487,19.71478 -15.24342,11.22156 -42.06039,13.56477 -63.92403,5.58552 -8.03176,-2.93122 -20.01974,-10.51324 -22.23757,-14.06456 -1.06363,-1.70315 -1.54277,-1.48598 -6.28597,2.84903 -6.53687,5.97433 -14.91266,10.43335 -25.01447,13.31696 -6.46875,1.84653 -10.40684,2.27018 -20.96489,2.25534 -20.45716,-0.0287 -32.69107,-4.45564 -42.95721,-15.5443 -6.58041,-7.10763 -9.30217,-13.89439 -10.1866,-25.40046 l -0.65124,-8.47241 -3.85247,0 -3.85248,0 0.022,28.25 c 0.0196,25.26594 0.21599,28.67252 1.85877,32.25 4.29479,9.35272 7.85829,10.40069 35.55482,10.45611 21.40139,0.0428 21.99387,-0.0109 24.33057,-2.20611 2.3634,-2.2203 2.75662,-2.25 29.79172,-2.25 l 27.39671,0 2.77272,2.76987 c 2.71836,2.71556 2.77919,3.03618 3.10209,16.35129 0.22114,9.1185 -0.0716,14.54945 -0.89085,16.52729 -2.27597,5.49468 -4.26988,5.85192 -32.63885,5.84781 -23.62675,-0.003 -26.06336,-0.16453 -28.93064,-1.91292 z m 53.63098,-18.58334 0,-12.5 -24.5,0 -24.5,0 0,12.5 0,12.5 24.5,0 24.5,0 0,-12.5 z m -58,-0.5 0,-8 -22.25,-0.006 c -12.24092,-0.003 -23.92556,-0.47092 -25.97474,-1.04003 -5.69997,-1.58302 -11.86113,-6.86184 -14.98252,-12.83686 l -2.79274,-5.34549 0,-79.38581 0,-79.38581 -8.5,0 -8.5,0 0.006,76.75 c 0.003,43.89186 0.41392,79.24198 0.95909,82.57077 2.50529,15.29706 13.96429,28.74162 28.32116,33.22848 2.98016,0.93136 11.46052,1.33654 28.96396,1.38385 l 24.75,0.0669 0,-8 z m 20.5,-47.62328 c 9.45233,-2.27516 18.04612,-6.80217 24.37802,-12.84178 7.96835,-7.60052 10.69587,-7.60804 18.56071,-0.0512 10.01497,9.62279 24.20853,14.68264 41.21488,14.69267 21.28661,0.0126 35.55796,-6.76136 42.03544,-19.95217 2.81035,-5.72303 2.81102,-5.7294 3.13763,-29.83363 0.18931,-13.97176 -0.11098,-26.47686 -0.71416,-29.73974 -2.31529,-12.52459 -10.45494,-23.10911 -21.89445,-28.47081 l -5.71807,-2.68006 -64.5,-0.31143 c -44.88918,-0.21673 -66.07573,0.0285 -69.68257,0.80663 -11.52182,2.48564 -22.69184,13.10794 -26.43678,25.14047 -1.63671,5.25875 -1.88065,9.39854 -1.88065,31.91591 0,23.37253 0.19215,26.38696 1.98793,31.18661 2.25708,6.03258 9.18161,13.40844 15.51207,16.52311 12.10561,5.95611 28.63327,7.31417 44,3.61542 z m -32.47575,-7.92091 c -10.89524,-3.04501 -17.57548,-8.70897 -20.01423,-16.96942 -0.80767,-2.73573 -1.07395,-11.01376 -0.83634,-26 0.34646,-21.85172 0.36581,-22.0192 3.1579,-27.34216 3.57012,-6.80621 9.80696,-12.87343 17.38566,-16.91284 11.45097,-6.1033 12.8065,-6.23139 65.94364,-6.23139 31.35509,0 50.09555,0.38681 53.5399,1.10508 13.23845,2.76071 25.47468,11.55549 30.74158,22.09549 l 3.05764,6.11887 0,23.38012 c 0,21.26991 -0.1774,23.72785 -1.96551,27.23283 -2.66656,5.2269 -8.95166,10.39237 -15.28855,12.56505 -7.37064,2.52712 -24.33714,3.13115 -32.74594,1.16581 -18.2157,-4.25746 -26.56647,-12.1362 -28.49636,-26.88561 -1.06334,-8.12673 -8.48541,-11.52314 -13.72697,-6.28159 -1.85032,1.85032 -2.64672,3.95593 -3.07847,8.13915 -1.13634,11.01012 -8.901,19.0973 -22.54653,23.48308 -8.84227,2.84197 -27.2382,3.54242 -35.12742,1.33753 z m 32.2214,-9.25529 c 11.61645,-3.9 16.20491,-8.62898 17.40043,-17.93329 1.3189,-10.26443 7.62611,-16.26723 17.09219,-16.26723 3.4853,0 5.97909,0.67327 8.36385,2.25807 4.07482,2.70794 7.89646,9.81947 7.90162,14.70382 0.012,11.35258 13.85647,19.26646 33.99626,19.43318 12.61248,0.1044 19.01013,-1.74794 24.07558,-6.97073 l 3.42442,-3.5308 0.30967,-20.69677 c 0.36079,-24.11404 -0.21721,-27.20926 -6.35608,-34.03717 -5.32051,-5.91769 -12.40979,-9.83114 -21.1732,-11.68811 -8.55109,-1.81198 -91.37908,-2.12262 -100.84673,-0.37822 -11.92571,2.19729 -22.40919,9.15826 -26.59574,17.6594 -2.23264,4.53355 -2.33792,5.72342 -2.33792,26.4229 0,20.47307 0.11676,21.83227 2.10453,24.5 4.80051,6.44262 14.40585,9.49737 27.89547,8.8715 5.14563,-0.23873 11.46065,-1.24368 14.74565,-2.34655 z m -14.67422,-27.77195 c -0.86428,-0.86428 -1.57143,-2.07003 -1.57143,-2.67943 0,-2.13536 31.32439,-32.74914 33.50931,-32.74914 2.43998,0 4.49069,1.77158 4.49069,3.87943 0,2.08737 -31.04942,33.12057 -33.13788,33.12057 -0.94559,0 -2.4264,-0.70714 -3.29069,-1.57143 z m -16.90476,-12.09524 c -2.10192,-2.10191 -0.0175,-5.5193 8.60212,-14.10308 9.12648,-9.08853 11.92591,-10.63555 14.53121,-8.03025 2.26505,2.26505 1.18152,4.08825 -7.98422,13.4347 -7.014,7.15229 -9.8102,9.3653 -11.83333,9.3653 -1.45701,0 -2.94911,-0.3 -3.31578,-0.66667 z m -38.66667,5.66667 c 0,-3.90476 -0.0833,-4 -3.5,-4 -3.41667,0 -3.5,0.0952 -3.5,4 0,3.90476 0.0833,4 3.5,4 3.41667,0 3.5,-0.0952 3.5,-4 z m -16,-108.54044 0,-12.54044 -8.25,0.29044 -8.25,0.29044 -0.28078,12.25 -0.28078,12.25 8.53078,0 8.53078,0 0,-12.54044 z"
       style="fill:#060606" />
  </g>
</svg>
