<?xml version="1.0" encoding="UTF-8" standalone="no"?>
<svg
   xmlns:dc="http://purl.org/dc/elements/1.1/"
   xmlns:cc="http://creativecommons.org/ns#"
   xmlns:rdf="http://www.w3.org/1999/02/22-rdf-syntax-ns#"
   xmlns:svg="http://www.w3.org/2000/svg"
   xmlns="http://www.w3.org/2000/svg"
   version="1.1"
   id="svg2"
   viewBox="0 0 249.96723 181.60555"
   height="181.60555"
   width="249.96722">
  <defs
     id="defs4" />
  <metadata
     id="metadata7">
    <rdf:RDF>
      <cc:Work
         rdf:about="">
        <dc:format>image/svg+xml</dc:format>
        <dc:type
           rdf:resource="http://purl.org/dc/dcmitype/StillImage" />
        <dc:title></dc:title>
      </cc:Work>
    </rdf:RDF>
  </metadata>
  <g
     transform="translate(878.8266,-121.9128)"
     id="layer1">
    <path
       id="path3386"
       d="m -829.39399,302.41195 c -1.25628,-3.27381 0.0249,-5.17132 4.07801,-6.03972 2.19416,-0.47012 7.36438,-1.84161 11.48939,-3.04777 l 7.5,-2.19301 -6.58897,-0.0147 c -8.59197,-0.0192 -15.91198,-3.85397 -20.64744,-10.81657 -7.67704,-11.28764 -6.43201,-23.28321 3.40167,-32.77438 15.77302,-15.22366 42.25417,-3.82995 42.30301,18.20117 0.0197,8.89925 -4.49831,16.70118 -12.94078,22.34665 -1.35988,0.90935 -2.22496,1.65336 -1.92241,1.65336 1.4267,0 14.37269,-5.69611 23.05267,-10.14295 16.59435,-8.50145 22.57549,-13.38732 35.66205,-29.13157 15.56388,-18.72467 24.36404,-26.7928 34.62061,-31.74074 10.36048,-4.99806 19.16179,-6.48509 29.29351,-4.94929 14.05774,2.13091 24.98604,7.20012 34.73962,16.11434 5.97369,5.45962 13.48472,16.12116 15.63444,22.19236 1.24763,3.52351 1.20078,3.95891 -0.56489,5.25 -3.28278,2.40043 -2.72906,2.91652 -9.6294,-8.97507 -9.5644,-16.48266 -28.49021,-27.61709 -46.94228,-27.61709 -17.5464,0 -31.29027,9.18846 -51.65913,34.5367 -4.4358,5.52019 -10.63503,12.38547 -13.77604,15.25619 -11.0317,10.08235 -32.72232,21.31594 -55.07421,28.52296 -13.86382,4.47017 -21.17769,5.58874 -22.02943,3.36913 z m 22.86514,-21.03601 c 4.40448,-1.84031 9.29209,-7.64906 10.11156,-12.01721 2.14045,-11.40958 -8.54113,-22.45539 -19.57997,-20.24763 -8.80464,1.76093 -14.36054,9.19671 -13.6124,18.21825 0.9626,11.60767 12.34255,18.53332 23.08081,14.04659 z m -59.23644,-31.74873 c -7.18372,-10.50486 -13.06131,-19.87067 -13.06131,-20.81291 0,-0.94223 1.2375,-2.86789 2.75,-4.27924 5.51529,-5.14646 45.03987,-31.80809 47.15396,-31.80809 1.19665,0 3.93987,0.9 6.09604,2 6.7672,3.45236 6.97994,3.37716 23.98624,-8.4783 7.07378,-4.93129 10.35747,-5.61651 12.02086,-2.50845 1.54796,2.89239 0.4726,4.18116 -8.92518,10.6964 -4.62206,3.20437 -8.44384,6.26807 -8.49283,6.80824 -0.049,0.54016 1.08826,1.11869 2.52723,1.28563 1.92138,0.2229 5.43164,-1.66746 13.21557,-7.1169 l 10.59925,-7.42042 -5.41693,-7.8831 c -5.91726,-8.61123 -6.82198,-9.13176 -16.13537,-9.28342 l -6.12117,-0.0997 -0.64929,4.89453 c -0.77037,5.80733 -2.52448,7.75592 -5.53264,6.146 -2.87982,-1.54123 -3.45368,-4.87905 -2.73081,-15.88365 0.51539,-7.84613 1.00349,-9.94376 2.70294,-11.61606 l 2.07397,-2.04083 1.93908,2.36079 c 1.0665,1.29843 1.93909,3.38484 1.93909,4.63646 0,1.93718 0.68297,2.37809 4.59165,2.96423 2.5254,0.37871 4.79002,0.49018 5.03249,0.24772 0.24246,-0.24246 -3.32179,-6.01372 -7.92057,-12.82502 -9.70157,-14.36913 -10.13847,-15.30642 -8.08966,-17.35524 3.27733,-3.27732 4.96828,-1.80317 15.45222,13.47106 5.66264,8.25 10.68754,15.00001 11.16645,15.00001 0.47891,0 13.31462,-8.63002 28.52381,-19.17781 15.20918,-10.5478 28.63747,-19.36599 29.84063,-19.59599 1.83638,-0.35105 3.44901,1.44258 10.04527,11.17279 6.58321,9.71095 8.18211,11.49098 9.85771,10.97442 4.3024,-1.32633 10.22352,-1.35802 15,-0.0803 4.76989,1.27599 5.00001,1.49562 5.00001,4.7722 l 0,3.43466 -8.02747,0 -8.02746,0 -9.97254,7.11636 c -5.4849,3.91399 -11.87068,8.35179 -14.19063,9.86176 -2.31994,1.50998 -4.46859,3.5347 -4.77477,4.49939 -0.30618,0.96469 0.60183,9.51337 2.0178,18.99706 2.14777,14.38507 2.35906,17.55416 1.27477,19.1199 -2.11552,3.05487 -43.10317,30.89819 -45.49031,30.90202 -1.20483,0.002 -10.42983,-2.91858 -20.5,-6.49003 -10.07017,-3.57144 -18.7594,-6.4963 -19.3094,-6.49969 -1.71212,-0.0105 -25.74556,17.3557 -27.66899,19.99323 -1.00273,1.375 -2.28873,5.2 -2.85777,8.5 -1.47026,8.52626 -2.48355,10.5 -5.3905,10.5 -2.07174,0 -4.52217,-3.01535 -15.52144,-19.09976 z m 17.15899,-6.53685 c 4.71589,-4.43811 31.56866,-22.36339 33.50123,-22.36339 0.89541,0 9.92248,2.94005 20.06017,6.53345 12.32912,4.37018 19.14174,6.30862 20.57523,5.8544 2.92802,-0.92777 36.67358,-24.30374 37.24878,-25.8027 0.25358,-0.66082 -0.69891,-8.97052 -2.11664,-18.466 -1.41773,-9.49549 -2.30462,-18.1249 -1.97087,-19.17647 0.33376,-1.05157 6.00021,-5.59664 12.59212,-10.10016 6.59191,-4.50351 12.16984,-8.4868 12.3954,-8.85176 0.48435,-0.78369 -11.33236,-18.00393 -12.32589,-17.96224 -0.3739,0.0157 -11.70482,7.68515 -25.17982,17.04326 -13.475,9.35811 -25.11021,17.37736 -25.85602,17.82056 -1.03801,0.61685 0.24004,3.20298 5.44995,11.02798 5.41714,8.13624 6.59623,10.56473 5.77816,11.90092 -1.30628,2.13361 -28.19957,21.09439 -30.87209,21.76598 -1.14461,0.28764 -7.71653,-1.89568 -15.36588,-5.10483 -7.35123,-3.08409 -14.01336,-5.35897 -14.80474,-5.05529 -1.33366,0.51177 -36.78161,24.89542 -38.67923,26.60635 -0.46741,0.42142 2.66153,5.84468 6.95321,12.05167 7.63645,11.04451 7.81942,11.22224 8.57014,8.32511 0.4219,-1.62818 2.24296,-4.34926 4.04679,-6.04684 z m 79.02971,-22.02567 c -2.01028,-0.81117 -1.44025,-4.81677 1,-7.02703 3.85651,-3.49302 13.14421,-9.31069 14.86421,-9.31069 0.90249,0 2.12717,0.58592 2.72149,1.30204 2.2043,2.65601 -0.075,5.89456 -7.61101,10.81412 -7.3518,4.7993 -8.47354,5.23079 -10.97469,4.22156 z m 64.08198,-8.25979 c -13.44628,-3.36068 -22.41384,-17.32185 -19.46245,-30.30018 4.20864,-18.50691 26.67523,-26.28759 41.02937,-14.20938 10.70469,9.0074 11.86188,25.34147 2.56481,36.20301 -5.70945,6.6702 -16.213,10.2857 -24.13173,8.30655 z m 11.99683,-9.44196 c 7.28054,-3.042 11.68867,-12.14366 9.61364,-19.84972 -1.48196,-5.5036 -7.33824,-11.39468 -12.24186,-12.3146 -7.67357,-1.43957 -15.35633,2.02533 -18.90999,8.52835 -2.60138,4.76039 -2.07379,13.38918 1.09034,17.8328 4.48019,6.29184 13.29261,8.79283 20.44787,5.80317 z"
       style="fill:#070707" />
  </g>
</svg>
