<?xml version="1.0" encoding="UTF-8" standalone="no"?>
<svg
   xmlns:dc="http://purl.org/dc/elements/1.1/"
   xmlns:cc="http://creativecommons.org/ns#"
   xmlns:rdf="http://www.w3.org/1999/02/22-rdf-syntax-ns#"
   xmlns:svg="http://www.w3.org/2000/svg"
   xmlns="http://www.w3.org/2000/svg"
   version="1.1"
   id="svg2"
   viewBox="0 0 233 248.5"
   height="248.5"
   width="233">
  <defs
     id="defs4" />
  <metadata
     id="metadata7">
    <rdf:RDF>
      <cc:Work
         rdf:about="">
        <dc:format>image/svg+xml</dc:format>
        <dc:type
           rdf:resource="http://purl.org/dc/dcmitype/StillImage" />
        <dc:title></dc:title>
      </cc:Work>
    </rdf:RDF>
  </metadata>
  <g
     transform="translate(964.39529,-224.0094)"
     id="layer1">
    <path
       id="path3412"
       d="m -962.82386,470.93797 c -1.40777,-1.40777 -1.57143,-12.0619 -1.57143,-102.3 0,-77.01111 0.28255,-101.01112 1.2,-101.92857 0.8775,-0.8775 8.9011,-1.2 29.85496,-1.2 l 28.65497,0 0.58063,-6.92579 c 1.14084,-13.60792 8.74185,-24.51038 21.47454,-30.80187 l 7.63445,-3.77234 25.05023,0 25.05022,0 6.50286,3.08181 c 12.67848,6.00854 21.40158,18.23459 22.66525,31.767 l 0.6211,6.65119 30.65539,0 c 22.50976,0 30.97426,0.31886 31.8554,1.2 0.91745,0.91745 1.2,24.91746 1.2,101.92857 0,90.2381 -0.16366,100.89223 -1.57143,102.3 -1.41009,1.41009 -13.20996,1.57143 -114.92857,1.57143 -101.71861,0 -113.51848,-0.16134 -114.92857,-1.57143 z m 222.18367,-102.17857 0.2551,-94.25 -27.5051,0 -27.5051,0 0,8.52475 c 0,8.38122 0.0463,8.54224 2.75,9.56362 6.55615,2.47672 12.20608,10.99906 12.20608,18.41163 0,5.19412 -2.86776,11.40645 -6.78838,14.70543 -12.82482,10.79138 -32.45341,1.94935 -32.45341,-14.61917 0,-7.93898 3.75522,-14.25239 10.53571,-17.71299 l 3.75,-1.91392 0,-8.47967 0,-8.47968 -45,0 -45,0 0,8.41079 0,8.4108 4.56598,2.21035 c 10.80274,5.22952 14.00656,20.69063 6.14327,29.64642 -8.68621,9.89305 -22.83526,9.42923 -31.15128,-1.02118 -2.77433,-3.48639 -3.05797,-4.51345 -3.05797,-11.07303 0,-6.17034 0.39345,-7.82475 2.68402,-11.28603 1.65713,-2.50409 4.43093,-4.90149 7.25,-6.26618 l 4.56598,-2.21035 0,-8.4108 0,-8.41079 -25.5,0 -25.5,0 0,93.83333 c 0,51.60834 0.30203,94.13536 0.67117,94.50451 0.36914,0.36914 48.63164,0.55664 107.25,0.41666 l 106.57883,-0.2545 0.2551,-94.25 z m -152.96046,-49.87002 c 4.90138,-3.17109 5.25697,-11.10396 0.69005,-15.39436 l -2.48469,-2.33425 0,5.97432 c 0,6.34693 -1.08943,8.37431 -4.5,8.37431 -3.41057,0 -4.5,-2.02738 -4.5,-8.37431 l 0,-5.97432 -2.48469,2.33425 c -9.32352,8.75898 2.44612,22.4032 13.27933,15.39436 z m 97.77347,1.15601 c 6.62639,-2.76868 7.92967,-12.06057 2.39424,-17.07006 -1.92754,-1.7444 -1.96235,-1.67686 -1.96235,3.80765 0,6.18395 -1.79318,9.04307 -5.34961,8.52964 -2.65064,-0.38267 -4.61657,-4.20873 -4.63565,-9.02183 -0.0169,-4.26543 -1.97627,-4.356 -3.87929,-0.17933 -1.73444,3.80668 -1.36151,7.84083 1.00267,10.8464 3.55244,4.5162 6.97564,5.3665 12.42999,3.08753 z m -9.59007,-59.78599 c -0.0411,-9.82139 -7.39527,-20.43073 -17.25099,-24.88673 -4.97431,-2.249 -6.26661,-2.36327 -26.72705,-2.36327 -18.7505,0 -22.13192,0.24372 -26.44135,1.90578 -10.0578,3.87911 -17.89637,14.10794 -19.17987,25.02849 l -0.65414,5.56573 45.13768,0 45.13768,0 -0.022,-5.25 z"
       style="fill:#020202" />
  </g>
</svg>
