<?xml version="1.0" encoding="UTF-8" standalone="no"?>
<svg
   xmlns:dc="http://purl.org/dc/elements/1.1/"
   xmlns:cc="http://creativecommons.org/ns#"
   xmlns:rdf="http://www.w3.org/1999/02/22-rdf-syntax-ns#"
   xmlns:svg="http://www.w3.org/2000/svg"
   xmlns="http://www.w3.org/2000/svg"
   version="1.1"
   id="svg2"
   viewBox="0 0 229.88902 247.61414"
   height="247.61414"
   width="229.88902">
  <defs
     id="defs4" />
  <metadata
     id="metadata7">
    <rdf:RDF>
      <cc:Work
         rdf:about="">
        <dc:format>image/svg+xml</dc:format>
        <dc:type
           rdf:resource="http://purl.org/dc/dcmitype/StillImage" />
        <dc:title></dc:title>
      </cc:Work>
    </rdf:RDF>
  </metadata>
  <g
     transform="translate(241.00231,-105.65225)"
     id="layer1">
    <path
       id="path3425"
       d="m -128.142,351.76268 c -1.12876,-1.12876 -3.43012,-4.78175 -5.11412,-8.11775 -3.18262,-6.30473 -11.60204,-15.86352 -73.40819,-83.34232 -16.54847,-18.06731 -30.90586,-34.13278 -31.90532,-35.70104 -6.90616,-10.83655 1.62363,-46.28892 16.36394,-68.01343 16.51519,-24.34035 39.49145,-39.86775 70.74761,-47.81134 10.77918,-2.73948 13.96139,-3.12455 25.82112,-3.12455 12.7911,0 14.28921,0.21816 27.545881,4.01141 16.57067,4.74151 26.01025,8.92222 37.68522,16.69048 28.86913,19.20885 45.54815,47.46821 48.72811,82.56031 1.26506,13.96042 6.8177404,6.80739 -75.48264,97.2378 -21.093291,23.17699 -29.101381,32.68276 -31.733401,37.66822 -1.93624,3.66752 -4.34741,7.41663 -5.35818,8.33136 -1.72063,1.55716 -1.96852,1.53236 -3.89003,-0.38915 z m -2.30396,-81.86043 c -0.32801,-47.89586 -0.31983,-47.81724 -5.45409,-52.41271 -3.23753,-2.89779 -13.05274,-5.12781 -20.27742,-4.60704 -6.61122,0.47655 -15.29181,3.91626 -17.94204,7.10959 -1.0262,1.2365 2.17384,9.00913 18.45598,44.82801 10.83359,23.83268 20.31405,44.79465 21.06769,46.58215 0.75364,1.7875 2.06462,3.25 2.9133,3.25 1.37231,0 1.50913,-4.95162 1.23658,-44.75 z m 32.828701,-2.32996 c 14.88039,-32.68242 20.84261,-46.78317 20.14661,-47.64707 -0.5437,-0.67487 -3.52952,-2.47487 -6.63516,-4 -4.82659,-2.37027 -6.88103,-2.77297 -14.14662,-2.77297 -7.115881,0 -9.424731,0.43349 -14.178871,2.66211 -9.23024,4.32691 -8.82113,1.82845 -8.82113,53.87156 0,35.66016 0.26236,45.04625 1.25,44.7197 0.6875,-0.22731 10.76082,-21.30231 22.385171,-46.83333 z m 35.36483,-2.90556 c 21.725,-23.76207 39.65176,-43.61645 39.83724,-44.12084 0.18548,-0.50439 -2.67159,-2.32507 -6.34905,-4.04596 -9.52289,-4.4563 -18.31282,-5.00558 -25.62284,-1.60117 -6.09575,2.83889 -10.91021,7.25771 -14.36539,13.18484 -4.72805,8.11068 -37.525871,81.71771 -36.878501,82.76518 0.42191,0.68266 1.25169,0.33514 2.27163,-0.95137 0.8838,-1.1148 19.381911,-21.4686 41.106911,-45.23068 z M -146.25243,309.575 c 0,-0.98672 -22.48068,-50.92424 -33.85169,-75.19653 -5.10337,-10.89352 -8.90563,-15.54144 -15.44147,-18.87578 -5.14318,-2.62385 -14.18084,-3.47073 -20.39794,-1.91139 -5.87023,1.47234 -13.49518,6.10404 -12.84892,7.80496 0.67514,1.77694 80.79712,89.25599 81.74948,89.25599 0.4348,0 0.79054,-0.48476 0.79054,-1.07725 z m 81.321931,-100.34408 c 10.4888,-6.07861 25.40925,-7.12824 38.03927,-2.67601 l 5.86121,2.06614 -0.70134,-4.67686 c -5.90908,-39.40456 -31.34135,-69.2475 -70.89989,-83.19594 -27.367211,-9.64974 -54.257001,-7.65229 -81.121181,6.02591 -27.10647,13.80156 -46.1962,36.30352 -53.43222,62.98305 -1.7594,6.48699 -4.10569,18.89504 -3.57294,18.89504 0.10563,0 2.85001,-0.9781 6.09861,-2.17356 4.59149,-1.68963 8.24431,-2.19058 16.40655,-2.25 9.85129,-0.0717 10.92396,0.12435 17.36227,3.17356 3.77426,1.7875 7.83278,3.25 9.01894,3.25 1.18617,0 5.52314,-1.4625 9.63773,-3.25 6.94311,-3.0163 8.27205,-3.25 18.48106,-3.25 10.20901,0 11.53795,0.2337 18.48106,3.25 4.11459,1.7875 8.45156,3.25 9.63773,3.25 1.18616,0 5.2369,-1.44142 9.00164,-3.20315 12.11709,-5.67027 27.380951,-5.00916 40.346121,1.74748 5.71213,2.9768 6.27515,2.9785 11.35538,0.0343 z"
       style="fill:#050505" />
  </g>
</svg>
