<?xml version="1.0" encoding="UTF-8" standalone="no"?>
<svg
   xmlns:dc="http://purl.org/dc/elements/1.1/"
   xmlns:cc="http://creativecommons.org/ns#"
   xmlns:rdf="http://www.w3.org/1999/02/22-rdf-syntax-ns#"
   xmlns:svg="http://www.w3.org/2000/svg"
   xmlns="http://www.w3.org/2000/svg"
   version="1.1"
   id="svg2"
   viewBox="0 0 249.9093 191"
   height="191"
   width="249.9093">
  <defs
     id="defs4" />
  <metadata
     id="metadata7">
    <rdf:RDF>
      <cc:Work
         rdf:about="">
        <dc:format>image/svg+xml</dc:format>
        <dc:type
           rdf:resource="http://purl.org/dc/dcmitype/StillImage" />
        <dc:title></dc:title>
      </cc:Work>
    </rdf:RDF>
  </metadata>
  <g
     transform="translate(531.6362,-66.266376)"
     id="layer1">
    <path
       id="path3438"
       d="m -444.5166,256.06638 c -1.53591,-1.53591 -1.53591,-4.06409 0,-5.6 1.80945,-1.80944 12.32212,-1.53502 14.22857,0.37143 1.85909,1.85909 1.87504,1.99275 0.53625,4.49431 -0.85435,1.59635 -2.12962,1.93426 -7.3,1.93426 -3.5393,0 -6.78688,-0.52206 -7.46482,-1.2 z m 26.01759,0.0176 c -1.61808,-1.61808 -1.54413,-4.3017 0.15745,-5.71388 0.9646,-0.80055 8.32,-1.06097 24.64174,-0.87245 20.89574,0.24135 23.37911,0.44707 24.36985,2.01874 0.80419,1.27576 0.80418,2.22424 -3e-5,3.5 -0.9912,1.57237 -3.48082,1.77716 -24.5273,2.01759 -17.37815,0.19851 -23.7384,-0.0467 -24.64171,-0.95 z m -78.01759,-17.0176 c -0.66,-0.66 -1.2,-1.92 -1.2,-2.8 0,-3.64183 1.93994,-4 21.66482,-4 18.0231,0 19.33153,0.12467 20.3,1.93426 1.33879,2.50156 1.32284,2.63522 -0.53625,4.49431 -1.3167,1.3167 -4.60736,1.57143 -20.3,1.57143 -13.23333,0 -19.08067,-0.3521 -19.92857,-1.2 z m 52.01092,0.0109 c -1.60902,-1.60901 -1.53584,-4.29637 0.1552,-5.69981 0.98059,-0.81382 12.87291,-1.06002 42.14128,-0.87244 37.57899,0.24085 40.86167,0.3985 41.87877,2.01133 0.8048,1.27619 0.8048,2.22381 -1e-5,3.5 -1.01724,1.61304 -4.30689,1.77042 -42.03397,2.01092 -31.00036,0.19762 -41.22413,-0.0329 -42.14127,-0.95 z m 95.02929,0.0293 c -1.65128,-1.65128 -1.57146,-4.32041 0.17248,-5.76775 2.24537,-1.86349 13.63073,-0.96841 14.97822,1.17754 0.79853,1.2717 0.79841,2.2283 -4.2e-4,3.5 -1.38113,2.19869 -13.19189,3.0486 -15.15028,1.09021 z m -181.84917,-17.26355 c -0.30206,-0.78716 -0.40112,-2.47642 -0.22012,-3.75392 l 0.32908,-2.32273 31.36286,-0.2644 31.36287,-0.26441 -0.58719,-2.23559 c -2.00851,-7.64704 -2.96254,-16.8116 -1.86439,-17.90975 0.74805,-0.74805 6.90783,-1.33108 17.19572,-1.62758 15.76663,-0.45439 16.03013,-0.49857 16.03013,-2.68755 0,-2.09897 -0.75369,-2.32709 -13.25,-4.01045 -14.14982,-1.90609 -16.75,-2.69538 -16.75,-5.08448 0,-0.83261 6.75,-17.61056 15,-37.28435 l 15,-35.77051 0,-19.246214 c 0,-11.35455 0.42446,-20.03932 1.03518,-21.18046 0.5874,-1.09756 2.08617,-1.93426 3.46482,-1.93426 3.24628,0 4.48944,2.64584 4.55022,9.68426 l 0.0502,5.81574 53.94978,44.375154 c 33.86075,27.85138 53.94978,45.02768 53.94978,46.12755 0,0.96383 -0.62136,2.26809 -1.3808,2.89837 -1.12176,0.93098 -94.73689,9.09893 -104.28538,9.09893 -2.05612,0 -2.33382,0.47595 -2.33382,4 l 0,4 6.25,2.8e-4 c 6.63105,3e-4 58.58361,-1.70528 72.52403,-2.38094 6.87903,-0.3334 8.64932,-0.0971 10.5,1.40162 l 2.22597,1.80264 -5.76822,11.07451 -5.76823,11.07451 32.65964,0.26369 c 29.84718,0.24098 32.75466,0.41439 33.76311,2.01369 0.80467,1.27613 0.80457,2.22387 -3.7e-4,3.5 -1.04015,1.64903 -8.23947,1.76465 -124.77476,2.00392 -106.52915,0.21873 -123.74705,0.0555 -124.22013,-1.17727 z m 177.66099,-14.68013 c 2.24089,-4.45691 3.84968,-8.32815 3.57508,-8.60274 -0.70663,-0.70664 -110.97051,2.88352 -111.8573,3.64203 -0.4016,0.34351 -0.20968,3.42348 0.42651,6.84438 l 1.15669,6.21981 51.31233,0 51.31234,0 4.07435,-8.10348 z m -84.05203,-51.56319 c 0,-13.56666 -0.18314,-24.47916 -0.40698,-24.25 -0.57833,0.5921 -18.39659,43.23082 -18.77762,44.93446 -0.23313,1.04232 1.64094,1.71183 7.1846,2.5667 4.125,0.63611 8.5125,1.21482 9.75,1.28603 l 2.25,0.12948 0,-24.66667 z m 57.07181,17.14972 c 24.36248,-1.93432 44.42629,-3.64782 44.58625,-3.80777 0.22157,-0.22158 -78.35971,-65.43687 -90.36881,-74.997864 l -2.28925,-1.82258 0,42.072584 c 0,40.57556 0.0672,42.07258 1.8882,42.07258 1.03851,0 21.82114,-1.58263 46.18361,-3.51695 z"
       style="fill:#060606" />
  </g>
</svg>
