<?xml version="1.0" encoding="UTF-8" standalone="no"?>
<svg
   xmlns:dc="http://purl.org/dc/elements/1.1/"
   xmlns:cc="http://creativecommons.org/ns#"
   xmlns:rdf="http://www.w3.org/1999/02/22-rdf-syntax-ns#"
   xmlns:svg="http://www.w3.org/2000/svg"
   xmlns="http://www.w3.org/2000/svg"
   version="1.1"
   id="svg2"
   viewBox="0 0 249.948 156.66146"
   height="156.66145"
   width="249.948">
  <defs
     id="defs4" />
  <metadata
     id="metadata7">
    <rdf:RDF>
      <cc:Work
         rdf:about="">
        <dc:format>image/svg+xml</dc:format>
        <dc:type
           rdf:resource="http://purl.org/dc/dcmitype/StillImage" />
        <dc:title></dc:title>
      </cc:Work>
    </rdf:RDF>
  </metadata>
  <g
     transform="translate(746.32448,-12.329481)"
     id="layer1">
    <path
       id="path3477"
       d="m -670.35048,166.99094 c -4.95361,-4.95361 -0.43487,-26.01474 8.21111,-38.27074 l 1.95462,-2.77075 -2.69804,-4.60386 c -4.47459,-7.63531 -9.30152,-12.16327 -17.04729,-15.99144 -6.57683,-3.25045 -8.1628,-3.62637 -15.29917,-3.62637 -6.74569,0 -8.93572,0.45579 -14.33884,2.98422 -3.50742,1.64132 -8.00438,4.41296 -9.99324,6.15921 -7.53998,6.62018 -13.78915,20.10468 -13.78915,29.75428 0,3.39811 -0.58288,5.03924 -2.45454,6.9109 -3.01917,3.01917 -4.49359,3.06979 -8.04507,0.2762 -2.70608,-2.1286 -2.75584,-2.35315 -2.17905,-9.83274 2.38509,-30.92928 28.70317,-53.944041 57.1002,-49.933281 8.20785,1.15927 18.06584,5.46397 24.40114,10.65527 4.03196,3.303891 12.45987,13.636761 13.38403,16.409211 0.23703,0.71111 2.40595,5.7e-4 5.83527,-1.91163 7.70741,-4.29769 15.10444,-6.20848 24.03419,-6.20848 8.81233,0 18.42154,2.57896 24.12078,6.47363 2.03332,1.3895 4.06848,2.52637 4.52259,2.52637 0.45411,0 1.71548,-1.67535 2.80306,-3.72299 1.08757,-2.04764 4.73092,-6.54181 8.09632,-9.98704 7.50291,-7.680861 17.50289,-12.774341 27.95954,-14.241151 28.41771,-3.98632 54.71533,19.013701 57.1002,49.940091 0.57679,7.47959 0.52703,7.70414 -2.17905,9.83274 -3.55148,2.79359 -5.0259,2.74297 -8.04506,-0.2762 -1.87167,-1.87166 -2.45455,-3.51279 -2.45455,-6.9109 0,-9.6496 -6.24917,-23.1341 -13.78915,-29.75428 -1.98886,-1.74625 -6.48582,-4.51789 -9.99324,-6.15921 -5.40312,-2.52843 -7.59315,-2.98422 -14.33884,-2.98422 -7.13637,0 -8.72234,0.37592 -15.29917,3.62637 -7.74361,3.8271 -12.57274,8.3562 -17.04301,15.98413 l -2.69376,4.59657 3.52064,5.77804 c 4.48566,7.36182 7.2946,15.89537 8.15605,24.77805 0.60706,6.25958 0.44915,7.29088 -1.4929,9.75 -4.09652,5.18719 -11.02662,2.2328 -11.02662,-4.70078 0,-11.06589 -5.4069,-22.93304 -14.12713,-31.00644 -7.28474,-6.74438 -14.2854,-9.54278 -23.87287,-9.54278 -19.84988,0 -35.54711,15.4142 -37.88783,37.20471 -0.79514,7.40216 -2.92217,10.79529 -6.76716,10.79529 -1.28975,0 -3.24501,-0.9 -4.34501,-2 z m 43.22252,-67.089981 c -9.94269,-1.89467 -18.69367,-9.16693 -23.45265,-19.48968 -1.85311,-4.01958 -2.26851,-6.65949 -2.26912,-14.42034 -6.5e-4,-8.17575 0.36658,-10.2834 2.63442,-15.12001 3.5739,-7.62206 8.9198,-13.27053 15.69852,-16.58705 7.95564,-3.89233 18.33652,-3.88773 25.88288,0.0115 7.1475,3.69311 11.96538,8.80403 15.65483,16.60699 2.74544,5.80644 3.10986,7.59766 3.06978,15.0886 -0.0374,6.9812 -0.51154,9.51405 -2.65374,14.17515 -6.62567,14.41641 -20.60123,22.395781 -34.56492,19.73487 z m 13.87904,-15.49259 c 4.03785,-2.04142 8.69732,-7.95682 9.95944,-12.64395 4.96082,-18.42308 -14.1283,-33.47572 -28.89086,-22.78177 -8.08997,5.86035 -10.43467,17.07128 -5.59961,26.77397 4.78809,9.60845 15.30329,13.31702 24.53103,8.65175 z m -92.86823,-5.08527 c -6.43363,-2.27681 -14.39838,-10.11313 -17.82815,-17.54068 -2.53489,-5.48958 -2.90221,-7.43861 -2.88191,-15.29148 0.0196,-7.57111 0.43794,-9.89226 2.63516,-14.62001 3.53192,-7.59962 8.87854,-13.25964 15.68103,-16.60021 11.73763,-5.7641204 26.90443,-2.84007 35.68592,6.87999 2.03736,2.25511 4.88304,6.62921 6.32373,9.72022 2.21899,4.76084 2.61806,6.9959 2.61044,14.62001 -0.008,7.78291 -0.39853,9.85081 -2.88945,15.29148 -3.51154,7.66988 -11.37937,15.27406 -18.21274,17.60242 -5.80858,1.97918 -15.43648,1.95104 -21.12403,-0.0617 z m 18.06441,-13.6832 c 6.57094,-2.74552 11.68213,-11.15722 11.69668,-19.24974 0.0192,-10.68629 -8.97391,-20.31482 -19.03253,-20.37726 -5.09626,-0.0316 -11.97678,3.81796 -15.25059,8.53257 -3.38258,4.87125 -4.59299,13.2439 -2.73049,18.88732 1.53596,4.65401 6.52315,10.4315 10.5006,12.16458 3.94516,1.71902 10.75713,1.73857 14.81633,0.0425 z m 129.93559,13.6832 c -6.45644,-2.28488 -14.40358,-10.11474 -17.80343,-17.54068 -2.49092,-5.44067 -2.88167,-7.50857 -2.88945,-15.29148 -0.008,-7.62411 0.39145,-9.85917 2.61044,-14.62001 3.54485,-7.60548 8.89059,-13.26186 15.68857,-16.60021 11.73763,-5.7641204 26.90443,-2.84007 35.68592,6.87999 2.03736,2.25511 4.87964,6.62921 6.31619,9.72022 2.19722,4.72775 2.61559,7.0489 2.63516,14.62001 0.0203,7.85287 -0.34702,9.8019 -2.88191,15.29148 -3.5429,7.67253 -11.42662,15.28174 -18.23746,17.60242 -5.80858,1.97918 -15.43648,1.95104 -21.12403,-0.0617 z m 18.06441,-13.6832 c 1.77843,-0.74308 4.64134,-2.95448 6.36202,-4.91423 8.94801,-10.19123 6.11143,-26.54353 -5.63502,-32.48473 -18.8592,-9.53873 -36.0585,16.11365 -21.73878,32.42291 1.74727,1.99003 4.53522,4.21011 6.19545,4.93352 3.94516,1.71902 10.75713,1.73857 14.81633,0.0425 z"
       style="fill:#040404" />
  </g>
</svg>
