<?xml version="1.0" encoding="UTF-8" standalone="no"?>
<svg
   xmlns:dc="http://purl.org/dc/elements/1.1/"
   xmlns:cc="http://creativecommons.org/ns#"
   xmlns:rdf="http://www.w3.org/1999/02/22-rdf-syntax-ns#"
   xmlns:svg="http://www.w3.org/2000/svg"
   xmlns="http://www.w3.org/2000/svg"
   version="1.1"
   id="svg2"
   viewBox="0 0 247.97231 200.7544"
   height="200.75439"
   width="247.97231">
  <defs
     id="defs4" />
  <metadata
     id="metadata7">
    <rdf:RDF>
      <cc:Work
         rdf:about="">
        <dc:format>image/svg+xml</dc:format>
        <dc:type
           rdf:resource="http://purl.org/dc/dcmitype/StillImage" />
        <dc:title></dc:title>
      </cc:Work>
    </rdf:RDF>
  </metadata>
  <g
     transform="translate(901.35049,-82.950826)"
     id="layer1">
    <path
       id="path3464"
       d="m -898.89594,281.35052 c -1.89268,-1.89267 -2.45455,-3.50469 -2.45455,-7.04215 0,-8.26149 2.98909,-19.73101 7.67131,-29.43581 7.93241,-16.44143 23.67246,-29.86757 41.82869,-35.67954 17.61164,-5.63764 36.25894,-4.10054 53.5,4.41002 5.225,2.57917 9.725,4.80048 10,4.93624 0.275,0.13576 2.24001,-2.45348 4.36668,-5.75387 5.19508,-8.06226 16.95613,-18.85464 25.31168,-23.22696 12.3479,-6.46145 20.04738,-8.26597 34.82164,-8.16111 11.19196,0.0794 14.11264,0.45834 21,2.72441 11.28633,3.71341 19.80395,9.00184 28.49271,17.69061 12.32158,12.32158 19.4091,27.42371 20.69483,44.09668 0.56601,7.33995 0.47114,7.82826 -2.00123,10.30062 -3.26426,3.26427 -7.58553,3.40749 -10.42164,0.34541 -1.49366,-1.61266 -2.28238,-4.23283 -2.78442,-9.25 -2.27993,-22.7844 -16.80594,-41.11862 -38.48025,-48.5684 -8.48881,-2.91773 -23.66868,-3.17666 -32.5,-0.55437 -13.79661,4.09664 -27.00815,14.5453 -33.19684,26.25449 l -3.10157,5.86828 3.41074,4.40072 c 7.5897,9.79263 13.38767,26.54715 13.38767,38.68666 0,5.57977 -0.28911,6.49487 -2.63486,8.34004 -3.49526,2.74937 -6.9109,2.61773 -9.91059,-0.38197 -1.7337,-1.73369 -2.45965,-3.56919 -2.47191,-6.25 -0.0855,-18.69085 -13.2202,-39.38312 -30.34876,-47.81118 -7.64134,-3.7599 -18.33141,-6.44954 -25.63388,-6.44954 -13.0102,0 -27.63539,5.88629 -37.46006,15.07679 -10.92035,10.21545 -16.63308,21.81332 -18.05081,36.64636 -0.58551,6.12596 -1.08866,7.56855 -3.22627,9.25 -3.39754,2.6725 -6.83547,2.51042 -9.80831,-0.46243 z m 58.24393,-87.64098 c -7.14067,-1.68044 -14.96254,-6.16849 -20.5863,-11.81204 -17.13146,-17.19176 -17.17202,-43.99308 -0.0924,-61.07268 17.85963,-17.85963 46.8295,-17.20989 63.67061,1.42801 21.44684,23.73503 11.11607,61.11882 -19.50327,70.57617 -6.76161,2.08845 -16.76271,2.46337 -23.48861,0.88054 z m 19.02286,-15.41436 c 6.38441,-1.89596 14.29183,-8.82509 17.41699,-15.26218 2.80102,-5.76942 3.09885,-16.67599 0.61217,-22.41754 -2.30365,-5.31893 -9.09845,-12.27591 -14.54611,-14.89327 -6.41126,-3.08034 -16.87685,-3.21077 -23.2552,-0.28983 -11.02948,5.05091 -16.96371,14.10236 -16.92723,25.81905 0.0146,4.68344 0.64244,8.41974 1.86845,11.11904 6.14907,13.53828 20.60743,20.14866 34.83093,15.92473 z m 84.07636,-10.42091 c -12.24553,-3.91538 -21.54633,-12.09551 -27.11272,-23.84587 -2.95863,-6.24553 -3.18327,-7.46953 -3.16091,-17.22333 0.0282,-12.29754 2.09824,-18.8124 8.58508,-27.01888 23.2976,-29.47367 70.27815,-18.32364 77.88893,18.48561 4.36342,21.10347 -8.84457,43.02944 -29.85342,49.55825 -7.99479,2.48451 -18.65886,2.5024 -26.34696,0.0442 z m 25.72179,-16.34625 c 10.30224,-5.26304 15.4223,-13.63496 15.45855,-25.27661 0.0365,-11.71669 -5.89775,-20.76814 -16.92723,-25.81905 -6.74603,-3.08931 -16.92792,-2.82476 -23.61427,0.61356 -5.79521,2.98008 -11.63002,8.99271 -14.05841,14.48687 -2.57832,5.83335 -2.34536,16.67336 0.48354,22.50021 2.95399,6.08453 11.05196,13.35649 16.99858,15.26469 6.56991,2.10821 15.496,1.3789 21.65924,-1.76967 z"
       style="fill:#030303" />
  </g>
</svg>
