<?xml version="1.0" encoding="UTF-8" standalone="no"?>
<svg
   xmlns:dc="http://purl.org/dc/elements/1.1/"
   xmlns:cc="http://creativecommons.org/ns#"
   xmlns:rdf="http://www.w3.org/1999/02/22-rdf-syntax-ns#"
   xmlns:svg="http://www.w3.org/2000/svg"
   xmlns="http://www.w3.org/2000/svg"
   version="1.1"
   id="svg2"
   viewBox="0 0 197 248.99146"
   height="248.99146"
   width="197">
  <defs
     id="defs4" />
  <metadata
     id="metadata7">
    <rdf:RDF>
      <cc:Work
         rdf:about="">
        <dc:format>image/svg+xml</dc:format>
        <dc:type
           rdf:resource="http://purl.org/dc/dcmitype/StillImage" />
        <dc:title></dc:title>
      </cc:Work>
    </rdf:RDF>
  </metadata>
  <g
     transform="translate(688.77905,-107.5279)"
     id="layer1">
    <path
       id="path3451"
       d="m -686.3245,354.09754 c -2.05272,-2.05271 -2.45455,-3.42278 -2.45455,-8.36901 0,-13.60544 4.79145,-31.55008 11.98552,-44.88742 23.91829,-44.34297 75.74252,-63.53147 122.607,-45.39662 15.04477,5.82178 32.21744,19.16602 42.90262,33.33802 11.49152,15.24146 19.50486,39.02381 19.50486,57.88739 0,3.94675 -0.50657,5.47967 -2.45455,7.42764 -2.54939,2.5494 -6.37377,3.15198 -9.47404,1.49277 -2.56688,-1.37376 -3.82373,-5.40246 -4.48368,-14.37198 -0.81477,-11.07375 -2.97053,-18.67158 -8.55918,-30.16624 -10.54816,-21.6953 -28.91891,-36.96639 -52.52855,-43.66548 -11.40813,-3.23699 -30.59187,-3.23699 -42,0 -23.60964,6.69909 -41.98039,21.97018 -52.52855,43.66548 -5.58865,11.49466 -7.74441,19.09249 -8.55918,30.16624 -0.65995,8.96952 -1.9168,12.99822 -4.48368,14.37198 -3.10027,1.65921 -6.92465,1.05663 -9.47404,-1.49277 z m 81.74716,-128.56761 c -10.54862,-2.76357 -18.69141,-7.47473 -26.75192,-15.47784 -12.00716,-11.92166 -17.5721,-25.38105 -17.5721,-42.5 0,-17.29047 5.16828,-29.98023 17.12231,-42.04063 18.75015,-18.917 45.1141,-23.28687 68.25727,-11.31376 9.62489,4.97943 21.04438,16.37717 25.47515,25.42663 11.92867,24.36327 7.57112,51.80798 -11.18221,70.42776 -15.06167,14.9544 -35.51473,20.67397 -55.3485,15.47784 z m 21.83864,-14.98549 c 22.91951,-4.3466 38.60368,-26.68165 34.92165,-49.73023 -2.9822,-18.66785 -17.59443,-33.32307 -36.44477,-36.55199 -22.13692,-3.7919 -44.75904,13.26456 -48.47923,36.55199 -1.70321,10.66168 0.87182,22.38611 6.8133,31.02176 10.08659,14.66034 26.66576,21.84205 43.18905,18.70847 z"
       style="fill:#030303" />
  </g>
</svg>
