<?xml version="1.0" encoding="UTF-8" standalone="no"?>
<svg
   xmlns:dc="http://purl.org/dc/elements/1.1/"
   xmlns:cc="http://creativecommons.org/ns#"
   xmlns:rdf="http://www.w3.org/1999/02/22-rdf-syntax-ns#"
   xmlns:svg="http://www.w3.org/2000/svg"
   xmlns="http://www.w3.org/2000/svg"
   version="1.1"
   id="svg2"
   viewBox="0 0 197.97386 249.48779"
   height="249.48778"
   width="197.97386">
  <defs
     id="defs4" />
  <metadata
     id="metadata7">
    <rdf:RDF>
      <cc:Work
         rdf:about="">
        <dc:format>image/svg+xml</dc:format>
        <dc:type
           rdf:resource="http://purl.org/dc/dcmitype/StillImage" />
        <dc:title></dc:title>
      </cc:Work>
    </rdf:RDF>
  </metadata>
  <g
     transform="translate(743.45733,-75.831329)"
     id="layer1">
    <path
       id="path3490"
       d="m -741.15712,322.82064 c -2.52635,-2.52635 -2.58193,-2.85425 -1.99178,-11.75 1.45518,-21.93478 10.32202,-43.61069 24.54665,-60.00684 l 4.21262,-4.85572 -0.10083,-54.64428 c -0.0957,-51.87574 0.002,-55.0388 1.92963,-62.43101 6.30673,-24.18611 25.56029,-44.115254 49.59349,-51.333664 9.33639,-2.8042 27.76651,-2.57702 37.5,0.46224 12.77214,3.98808 20.62688,8.7291 30.0367,18.12975 9.82282,9.813264 15.72004,19.945334 19.05679,32.741674 1.92778,7.39297 2.02535,10.55445 1.9294,62.52076 l -0.10105,54.73404 5.31515,6.26596 c 13.82821,16.30189 21.91325,36.46648 23.42248,58.41709 0.61251,8.90852 0.56029,9.22002 -1.96969,11.75 -3.2197,3.2197 -7.04475,3.33481 -10.07633,0.30323 -1.92015,-1.92015 -2.40759,-3.77862 -2.98007,-11.36223 -1.88191,-24.9292 -13.72963,-47.01276 -33.23891,-61.95566 -4.08443,-3.12842 -7.69979,-5.41448 -8.03414,-5.08013 -0.33435,0.33434 -1.71098,3.8897 -3.05919,7.90078 -4.71298,14.02165 -12.8473,25.00993 -22.45279,30.33042 -4.82041,2.67004 -6.23674,2.96175 -14.34835,2.95529 -7.55877,-0.006 -9.72022,-0.38981 -13.49752,-2.3966 -10.55142,-5.60573 -20.55428,-19.86105 -24.62678,-35.09623 -0.95563,-3.575 -1.8488,-6.6552 -1.98482,-6.84488 -0.13602,-0.18969 -3.52191,1.77344 -7.5242,4.3625 -22.12403,14.31197 -36.46192,38.82582 -38.50006,65.82451 -0.57248,7.58361 -1.05992,9.44208 -2.98007,11.36223 -3.03158,3.03158 -6.85663,2.91647 -10.07633,-0.30323 z m 104.9719,-52.75351 c 3.86691,-1.62515 10.82832,-8.97954 13.53418,-14.29821 2.48522,-4.88499 6.33591,-17.2941 5.69058,-18.33828 -0.26899,-0.43523 -3.75558,-1.62828 -7.74797,-2.65123 -8.87406,-2.27374 -29.53837,-2.54904 -37.53437,-0.50005 l -5.27545,1.35185 0.64846,3.64415 c 1.43205,8.04763 6.49782,19.03392 11.17547,24.23659 6.82172,7.5874 12.50735,9.4978 19.5091,6.55518 z m -56.55758,-40.1431 c 7.47582,-4.45332 19.721,-8.92604 30.31307,-11.07227 11.26963,-2.28352 32.31979,-1.5454 42.825,1.50164 9.12385,2.64639 17.41254,6.101 24.10278,10.0457 2.81744,1.66123 5.32782,3.02041 5.57862,3.02041 1.00707,0 0.39234,-45.98336 -0.68655,-51.35558 l -1.14255,-5.68915 -2.48901,3.77237 c -3.9938,6.05303 -12.25649,14.20835 -18.64749,18.40518 -18.14916,11.91816 -45.00766,11.91816 -63.15682,0 -3.25688,-2.13872 -8.38122,-6.41854 -11.38743,-9.5107 -4.45142,-4.5787 -6.07535,-5.62212 -8.75,-5.62212 l -3.28416,0 0,25 c 0,13.75 0.19275,25 0.42833,25 0.23558,0 3.06888,-1.57297 6.29621,-3.49548 z m 59.81536,-39.05652 c 13.90519,-3.62089 25.03932,-13.93954 30.47376,-28.24182 l 1.84523,-4.85627 -4.17944,-5.19062 c -2.2987,-2.85484 -6.41608,-7.025 -9.14974,-9.26701 -4.69119,-3.8475 -12.38794,-8.41125 -13.00631,-7.71204 -0.15554,0.17587 -1.45851,2.66055 -2.8955,5.52151 -3.07395,6.12009 -10.14937,15.24469 -15.9829,20.61189 -5.91451,5.44169 -17.84139,13.22533 -23.39888,15.27042 -2.61037,0.96058 -5.11342,2.06193 -5.56234,2.44745 -0.78118,0.67084 6.41127,6.44296 11.01362,8.83871 7.68165,3.99866 21.08418,5.11883 30.8425,2.57778 z m -43.56006,-27.43282 c 17.66409,-6.98585 32.14944,-22.57388 38.58736,-41.52478 2.25744,-6.64508 2.73285,-9.84243 2.82363,-18.9904 l 0.10917,-11.000004 -5.55864,-0.88296 c -12.79254,-2.03204 -31.55966,4.95313 -42.33999,15.759064 -10.74915,10.77467 -16.60137,24.91891 -16.60137,40.1239 0,6.85704 1.88759,17.89107 3.50959,20.51551 0.67151,1.08653 13.02639,-1.45189 19.47025,-4.00033 z m 86.05302,-28.35689 c -1.42876,-6.88232 -6.15619,-16.80338 -11.18194,-23.46663 -3.52895,-4.67877 -14.79964,-14.191664 -16.814,-14.191664 -0.40869,0 -1.01829,4.162504 -1.35466,9.250004 -0.33637,5.0875 -0.8863,10.19112 -1.22207,11.34139 -0.51661,1.76974 0.51605,2.75436 6.71466,6.40226 4.43909,2.61241 10.67409,7.69832 15.82515,12.90861 8.18135,8.27542 8.51182,8.49365 8.81535,5.82102 0.17344,-1.52719 -0.17868,-5.15644 -0.78249,-8.06499 z"
       style="fill:#030303" />
  </g>
</svg>
